<svg width="54" height="74" viewBox="0 0 54 74" fill="none" xmlns="http://www.w3.org/2000/svg">
<path fill-rule="evenodd" clip-rule="evenodd" d="M48.5742 15.3388C48.7773 17.5609 47.5691 19.9782 45.0991 19.8481C41.293 19.6185 41.2118 15.776 41.1454 12.6299C41.1335 12.0639 41.122 11.5204 41.0894 11.0245C40.929 9.11672 40.4799 2.68871 41.6347 1.42045C42.5756 0.228071 44.4148 -0.454838 45.8476 0.347309C48.0373 1.66418 48.4074 4.44208 48.7325 6.882C48.782 7.25387 48.8305 7.6179 48.8843 7.9677C48.9319 9.53271 48.8281 11.0933 48.7242 12.6551L48.7242 12.6552C48.6648 13.549 48.6053 14.4432 48.5742 15.3388ZM10.103 0.476278C12.188 0.400399 14.1875 1.69034 15.214 3.50059C18.8816 10.4706 8.50978 15.3268 4.54284 9.50585C2.25463 6.02626 4.56422 1.26758 8.32801 0.140243C8.86844 -0.0864617 9.41699 0.164259 9.89582 0.383117L9.89585 0.383133L9.89588 0.383147L9.89591 0.383162L9.89593 0.38317L9.89601 0.383205L9.89613 0.383259C9.96668 0.415502 10.0357 0.447051 10.103 0.476278ZM8.76395 21.3691C8.74428 21.1081 8.72503 20.8526 8.70173 20.6067C8.2472 20.6089 7.74247 20.647 7.21535 20.6867C5.08882 20.8472 2.59802 21.0351 1.56978 19.0024C1.20624 18.0269 1.34524 16.6719 2.04026 15.8697C2.82507 15.1773 3.87164 15.2258 4.90137 15.2735C5.38681 15.296 5.86851 15.3183 6.31729 15.2627C8.06017 15.241 9.80037 15.2166 11.5406 15.1923H11.5406H11.5406H11.5407H11.5407H11.5407H11.5407H11.5408H11.5408H11.5408H11.5408C13.281 15.1679 15.0211 15.1435 16.7639 15.1218C17.8867 15.1001 18.6244 16.1624 18.9559 17.1163C19.5654 19.7938 16.4645 20.0539 14.5933 20.0864C15.5771 23.1758 14.711 27.7393 10.6264 26.1784C9.05092 25.1766 8.89779 23.1449 8.76395 21.3691ZM25.2564 23.7613C27.6729 26.6013 32.1317 27.2517 35.3288 25.4415C36.8578 24.5743 37.4459 22.3413 36.088 21.0513C34.6163 19.7849 32.638 20.0039 30.7885 20.2086H30.7885H30.7885H30.7884H30.7884H30.7884C30.3267 20.2597 29.873 20.3099 29.4372 20.3359C28.6459 18.6232 29.8435 18.0812 31.3191 17.8102C31.6048 17.7116 31.9 17.6159 32.1999 17.5187C33.976 16.9432 35.9112 16.316 36.9541 14.7209C37.3831 13.8365 37.4344 12.8407 37.4852 11.8533C37.5104 11.3641 37.5355 10.877 37.6063 10.4066C37.7239 9.21424 37.8202 8.01102 37.617 6.81864C37.2428 3.1873 33.479 2.13584 30.3995 2.42852C29.8227 2.49104 29.1978 2.43751 28.5675 2.38351C27.3403 2.27837 26.0925 2.17147 25.1388 2.91631C23.4173 4.27129 23.3424 7.06796 25.2992 8.23866C26.8625 9.11431 28.719 9.02795 30.4965 8.94527C30.9194 8.9256 31.3378 8.90614 31.7468 8.89989C31.6826 9.82127 31.7361 10.7535 31.8858 11.664C24.9249 10.786 20.6265 18.2655 25.2564 23.7613ZM4.5325 49.3867C8.31767 50.3407 18.775 50.6767 17.9624 44.6714C17.0107 41.3436 12.9048 41.5821 10.1782 41.9831C10.1371 41.8381 10.0921 41.6902 10.0465 41.5402C9.77156 40.6366 9.47375 39.6578 9.86809 38.7745C9.99956 38.779 10.1357 38.7841 10.2758 38.7894L10.2778 38.7895C12.8827 38.8882 16.8224 39.0375 16.7006 35.4792C16.2836 31.2842 11.0336 31.8479 8.00758 32.1731C4.41488 32.4007 0.907714 34.0592 0.758018 38.135C0.373086 42.0157 0.0843865 47.88 4.5325 49.3867ZM11.5043 52.2581C12.8301 52.8109 13.8887 53.9816 13.7604 55.5534L13.9019 55.5563C15.9819 55.5981 18.9314 55.6574 19.2136 58.3067C19.6411 61.4919 15.5291 61.6127 13.3149 61.6778L13.3113 61.6779C12.9605 61.7037 12.6092 61.7307 12.2575 61.7577C9.36118 61.98 6.43917 62.2043 3.55967 61.8079C0.747526 61.5586 -1.52999 58.4693 1.29285 56.4314C2.7259 55.7442 4.35866 55.7132 5.95349 55.6829C6.3459 55.6755 6.73602 55.6681 7.1203 55.6509C6.28628 53.1795 9.4192 50.4804 11.5043 52.2581ZM5.78615 69.115C5.56161 72.5729 9.67825 74.6433 12.6401 73.8195C14.661 73.1799 17.1417 71.6841 16.714 69.1909C15.9227 63.9878 6.11762 63.3699 5.78615 69.115ZM36.2693 44.0337C33.6497 45.5187 30.4312 44.7383 27.8115 43.6326C25.0421 42.2885 24.4434 38.7547 25.4485 36.0556C26.0259 34.3862 27.1486 32.305 29.1588 32.4025C32.721 32.662 32.3684 36.8147 32.1437 39.4606L32.142 39.4809C33.2276 39.9907 33.5623 39.8844 34.2183 39.6759C34.4411 39.6052 34.7009 39.5226 35.0397 39.4484C36.2693 39.4159 37.1782 39.611 37.7877 40.5649C38.5896 41.9199 37.5417 43.4375 36.2693 44.0337ZM44.6377 40.814C45.2091 39.2394 45.2334 37.5071 45.2574 35.7948V35.7948C45.2684 35.0081 45.2794 34.2256 45.3434 33.4646C45.6428 29.5189 39.6763 29.0962 39.7832 33.237C34.3621 31.8928 34.8005 39.665 39.9757 38.516C40.1575 39.5674 40.4783 40.6839 41.077 41.5728C42.1142 42.6351 44.0175 42.1148 44.6377 40.814ZM47.1163 38.2762V38.2761V38.276C47.1136 37.8521 47.1109 37.4285 47.0899 37.0073C47.1603 36.3387 47.0959 35.5476 47.0297 34.7348C46.9049 33.2022 46.7737 31.5922 47.5283 30.5793C51.8374 28.097 53.2168 31.7825 53.7942 35.5331C54.1256 37.5385 54.1149 39.6739 53.3451 41.5817C52.062 45.4082 48.2233 44.2266 47.2931 40.888C47.1275 40.0266 47.1219 39.1505 47.1163 38.2762ZM35.6816 59.3962H35.6816C34.423 59.3427 32.9251 59.2791 32.7277 59.6863C32.4604 61.0738 32.7064 62.4613 34.1178 62.7648C34.381 62.7915 34.6025 62.7736 34.786 62.7587C35.2736 62.7193 35.4923 62.7017 35.5078 63.5995C36.2135 66.5587 32.3642 66.5262 31.0062 64.9219C29.103 62.5372 29.0816 57.7134 32.1076 56.2934C33.1468 55.8511 34.5467 56.1775 35.7461 56.4573C36.7804 56.6985 37.6657 56.9049 38.042 56.5536C40.1912 52.9764 35.4009 52.3694 32.9202 52.2935C26.8468 52.3044 24.2592 57.7785 25.3606 63.296C26.8041 68.0004 30.3647 70.2768 35.1763 69.4204C40.0308 69.0085 39.8918 66.7647 39.6245 62.5697C39.6886 61.0196 39.1861 59.0142 37.2293 59.4045C36.9195 59.4488 36.3326 59.4239 35.6816 59.3962ZM47.0036 57.9625C48.8855 58.5587 50.8422 59.285 52.2536 60.7375C54.3708 62.2876 53.804 65.5287 52.4354 67.404C50.5 69.7563 46.8859 69.4961 44.2021 68.9108C43.9292 68.7878 43.6117 68.7014 43.2891 68.6137C42.5878 68.4229 41.8625 68.2256 41.5183 67.6317C41.283 66.5694 41.4327 64.6941 42.4806 64.1521C43.2078 64.2714 43.9268 64.5432 44.6465 64.8153C45.7577 65.2353 46.8708 65.656 48.0194 65.5179C48.6716 65.3987 49.0779 64.8242 48.971 64.1629C48.4971 63.4009 47.5426 63.0882 46.6606 62.7994C46.3884 62.7102 46.123 62.6233 45.8808 62.5261C42.7586 62.1359 41.005 58.7755 41.8391 55.8271C43.2932 51.8597 48.4471 51.9356 51.858 52.8136C53.8575 53.1497 53.0556 55.7187 52.3392 56.9544C51.7863 57.1861 51.2435 56.9798 50.6794 56.7654C50.4253 56.6688 50.1669 56.5706 49.9013 56.51C49.8439 56.4941 49.7824 56.4768 49.7174 56.4586C48.5827 56.1394 46.3712 55.5173 46.1589 56.9219C46.084 57.4205 46.4369 57.9409 47.0036 57.9625Z" fill="#060606"/>
</svg>
