<svg width="48" height="48" viewBox="0 0 48 48" fill="none" xmlns="http://www.w3.org/2000/svg">
<path fill-rule="evenodd" clip-rule="evenodd" d="M33.6479 2.76056C35.7253 2.72474 37.0147 3.90673 36.9789 5.94834C40.31 5.48271 41.492 7.38105 42.1367 9.88829C42.28 10.3897 42.1009 12.5388 42.1009 12.5388C43.0321 13.0761 43.7843 13.3626 44.3216 14.2581C47.1153 18.8427 41.9934 22.3887 39.4145 23.9288C39.2354 25.5765 38.4474 28.1195 37.9818 29.6955C36.6924 33.9578 35.9044 39.1514 32.0719 40.7274C30.1735 41.5154 28.9199 39.6528 28.0603 40.011C27.6305 40.9065 25.9112 41.4437 24.6934 40.9781C24.2636 40.6915 23.8696 40.405 23.4398 40.1185C22.8309 39.9036 22.4369 39.8677 22.0071 39.5454C20.073 38.041 21.5773 36.5725 21.04 34.3876C20.5028 32.0953 19.9655 29.8029 19.4282 27.5464C18.8193 23.7856 20.7893 20.956 24.0129 20.9201C23.9054 20.8127 23.798 20.7052 23.6905 20.5978C23.4398 20.1322 23.1891 19.6665 22.9384 19.2009C21.6131 14.8311 25.1591 11.9299 28.311 11.2494C28.5976 8.02576 30.3526 4.40817 32.5017 3.11873C32.8957 3.01128 33.2539 2.90383 33.6479 2.76056Z" fill="#060606"/>
<path fill-rule="evenodd" clip-rule="evenodd" d="M43.9986 20.8849C43.6762 20.3835 43.0315 19.882 42.4226 19.7029C41.563 19.4164 40.1661 19.5597 39.0915 19.5597H32.1071C30.4595 15.2257 29.1342 10.7843 27.3075 6.59363C26.5553 4.83856 25.5524 2.97604 23.0094 2.97604C22.293 3.26259 21.7557 3.33422 21.2543 3.79985C20.2514 4.6953 19.4634 6.80854 18.8903 8.1338C18.4247 8.99342 17.9591 9.85305 17.4934 10.7127C16.9203 11.9305 16.3473 13.1483 15.7742 14.3661C14.8429 16.0495 13.9117 17.7688 12.9804 19.4522C12.5148 19.6671 11.5477 19.5597 10.9388 19.5597C8.25246 19.5597 4.7065 19.094 3.52452 20.67C1.91272 22.7474 3.77524 28.4783 4.24087 31.0571C5.06468 35.7135 5.02887 42.089 8.03756 44.453C9.50609 45.5991 13.3386 45.1335 15.8458 45.1335C23.081 45.1335 30.2804 45.0977 37.5156 45.0977C40.0228 44.5604 40.1661 42.1965 40.8108 39.725C41.4913 37.0387 42.2077 34.3166 42.8882 31.6302C43.1748 30.0901 43.4613 28.5857 43.7478 27.0456C44.1777 25.2547 45.0373 22.5325 43.9986 20.8849ZM9.14791 25.577V25.5412H14.5206C14.5564 26.5799 14.628 27.6186 14.6638 28.6215H9.79262C9.57771 27.5828 9.36281 26.5799 9.14791 25.577ZM11.6193 39.0803C11.2253 37.6834 10.7239 36.1791 10.5806 34.5673H14.8787C14.9146 36.1074 14.9862 37.6118 15.022 39.1519C13.8759 39.1161 12.7297 39.1161 11.6193 39.0803ZM23.2243 12.5752C24.0839 14.9034 24.9435 17.2315 25.8032 19.5597H19.75C20.932 17.2315 22.0781 14.9034 23.2243 12.5752ZM24.657 39.1519H21.0036C20.932 37.6476 20.8603 36.1433 20.8245 34.6389C22.2572 34.6389 23.6899 34.6031 25.1226 34.6031C25.0868 36.1074 24.8003 37.7551 24.657 39.1519ZM25.7673 28.5499C24.0481 28.5499 22.3288 28.5857 20.6096 28.5857C20.5738 27.547 20.5021 26.5083 20.4663 25.5054H26.0897L26.1255 25.5412C26.0181 26.5799 25.8748 27.5828 25.7673 28.5499ZM34.7934 39.1519H30.7102C30.8535 37.6118 30.9609 36.1074 31.1042 34.5673H35.9038C35.5456 36.0716 35.1874 37.6118 34.7934 39.1519ZM37.3723 28.5499C35.5098 28.5499 33.6114 28.5857 31.7489 28.5857C31.8564 27.547 31.9638 26.5083 32.0713 25.5054H37.8737C37.7305 26.5441 37.5514 27.547 37.3723 28.5499Z" fill="white"/>
</svg>
