<svg width="48" height="48" viewBox="0 0 48 48" fill="none" xmlns="http://www.w3.org/2000/svg">
<path fill-rule="evenodd" clip-rule="evenodd" d="M22.768 4.20089C29.3538 4.1279 31.2459 8.61708 33.7565 12.6318C37.3587 18.3984 40.9609 24.5299 44.0901 30.7345C46.0913 34.6762 46.5279 40.4428 42.7438 42.7786C40.4151 44.202 35.5394 43.6911 31.9009 43.6911C26.9524 43.6911 21.9676 43.6911 17.0191 43.6911C10.9063 43.6911 5.6668 43.7276 3.33811 39.8589C1.15497 36.2091 3.3017 30.99 4.53881 28.1067C5.37568 26.1723 6.54003 24.5664 7.59522 22.8511C8.3957 21.4277 9.19618 20.0408 9.99667 18.6174C12.3981 14.6026 15.0543 8.2886 18.6565 5.69728C19.3478 5.22282 20.1847 4.74835 21.0215 4.49287C21.6037 4.45637 22.1859 4.31038 22.768 4.20089Z" fill="white"/>
<path fill-rule="evenodd" clip-rule="evenodd" d="M25.7162 24.9855C33.721 24.876 33.5027 28.8542 33.5027 36.6281C33.3935 39.0005 33.3208 41.3363 33.2116 43.7086C26.9169 43.7086 20.5858 43.7086 14.2911 43.7086C14.2897 41.7175 14.2547 42.3884 14.2547 39.9884C14.2549 39.3884 14.2547 36.5085 14.2547 34.8398C14.2547 32.5118 14.4002 30.0951 15.1643 28.2337C15.6373 27.0293 16.7289 25.8614 17.9296 25.3869C19.3487 24.7665 21.5507 24.9856 23.4963 24.9853C24.126 24.9853 25.0976 24.9855 25.7162 24.9855Z" fill="#060606"/>
</svg>
