<svg width="40" height="40" viewBox="0 0 40 40" fill="none" xmlns="http://www.w3.org/2000/svg">
<path fill-rule="evenodd" clip-rule="evenodd" d="M10.4893 34.7156C15.4529 34.7156 20.3852 34.7156 25.3487 34.7156C27.8149 34.7156 29.5318 34.6219 30.2186 36.4013C30.3435 36.7759 30.4996 37.3066 30.3747 37.8061C29.8752 40.0537 27.7213 39.9289 24.9741 39.9289C21.4466 39.9289 17.9502 39.9289 14.4227 39.9289C12.737 39.9289 10.2084 40.241 9.11577 39.5542C7.86708 38.805 7.49249 36.8071 8.52265 35.5272C9.02213 34.9341 9.71386 34.716 10.4893 34.7156Z" fill="#060606"/>
<path fill-rule="evenodd" clip-rule="evenodd" d="M33.4326 12.9887C33.1829 11.022 33.0892 9.46112 32.4649 7.93148C30.4045 2.68698 25.3473 -0.0913595 17.8552 0.00229215C17.1996 0.0959438 16.5441 0.189603 15.9197 0.283255C14.5462 0.626644 13.0165 1.03247 11.799 1.65681C7.70959 3.74837 5.39951 7.49444 5.02491 13.0823C4.86882 15.4548 5.46194 17.5152 6.36724 19.0136C7.11646 20.2623 8.02177 21.6046 9.05194 22.5411C10.4255 23.7586 11.8303 24.82 12.9229 26.3184C13.7033 27.411 14.4525 28.6285 14.8583 30.0645C15.7012 32.7804 15.2329 38.5868 19.2912 37.8688C21.2579 37.5254 22.0695 36.3391 22.4129 34.3725C22.4441 33.592 22.5065 32.7804 22.5378 32C22.8499 30.3142 23.3806 28.7846 24.1923 27.5983C25.0664 26.3809 26.3151 25.3819 27.5013 24.4454C27.9071 24.0083 28.313 23.6025 28.7188 23.1655C30.2172 21.6671 31.5596 20.2935 32.4649 18.1707C33.058 16.8284 33.6199 14.5183 33.4326 12.9887ZM19.8843 17.2654C16.0134 17.921 13.0165 13.7691 14.5774 10.1167C15.1081 8.89921 16.2631 8.05634 17.6054 7.68173C18.1049 7.6193 18.6356 7.55687 19.1351 7.46322C25.5971 7.432 25.3785 16.3289 19.8843 17.2654Z" fill="#09E27C"/>
</svg>
