<svg width="41" height="40" viewBox="0 0 41 40" fill="none" xmlns="http://www.w3.org/2000/svg">
<path fill-rule="evenodd" clip-rule="evenodd" d="M37.4821 11.17C37.4821 8.36338 37.6346 6.22794 36.0178 5.00769C34.1874 3.6349 29.8555 4.12299 26.7439 4.12299H3.95561C2.36927 4.79413 1.5151 4.79414 0.630414 6.19743C-0.0712318 7.32617 -0.193259 12.2072 0.294843 13.9155C0.477881 14.5257 0.935478 15.1358 1.39307 15.5019C2.9794 16.7526 6.67066 16.2645 9.47725 16.2645H29.4284C33.0282 16.2645 36.5059 16.8747 37.3906 14.0376C37.6041 13.2139 37.4821 12.0852 37.4821 11.17ZM34.767 19.6812C24.0593 19.6812 13.321 19.6507 2.61332 19.6507C2.61332 21.5421 2.58282 23.403 2.58282 25.2944C2.58282 28.2535 2.21674 31.7923 3.34548 33.5921C3.95561 34.5378 4.93181 35.3615 6.09105 35.7276C7.3113 36.1242 9.17219 35.9716 10.7585 35.9716H26.5608C28.6047 35.9716 30.7097 36.0937 32.0825 35.453C33.3332 34.8734 34.2789 33.6531 34.706 32.2193C35.0416 31.0906 34.7365 29.5958 34.7365 28.2535V19.6812H34.767Z" fill="#09E27C"/>
<path fill-rule="evenodd" clip-rule="evenodd" d="M21.2527 4H16.1886C16.1886 6.34899 16.2191 8.66747 16.2191 11.0165C16.2191 12.0537 16.0361 13.5485 16.3412 14.3722C16.6462 15.1958 17.3479 15.867 18.2936 16.0195C22.1984 16.7822 21.2832 10.7724 21.2832 7.50823C21.2832 6.3795 21.2832 5.18975 21.2527 4ZM38.9769 17.9109C38.2447 17.6058 36.9635 17.7584 35.9873 17.7584H29.7029C29.1022 17.7584 28.8793 17.9109 28.5132 18.1549C27.5675 18.8566 27.7505 20.5955 28.6657 21.1446C29.3674 21.5717 30.7707 21.4191 31.8689 21.4191H36.7499C37.4516 21.4191 38.3667 21.5107 38.8854 21.2971C39.404 21.0836 39.8616 20.5955 40.0141 19.9853C40.2887 19.0396 39.6175 18.1855 38.9769 17.9109ZM34.828 23.8291H24.6389C24.0726 23.8291 23.7542 23.9512 23.3881 24.1952C22.2594 25.0189 22.595 26.9103 23.7847 27.3984C24.6084 27.7339 26.2252 27.5204 27.2624 27.5204H34.0043C34.95 27.5204 36.2923 27.7034 37.0855 27.4289C37.6651 27.2458 38.1532 26.6662 38.3057 26.0561C38.7938 23.9207 36.6889 23.8291 34.828 23.8291Z" fill="#060606"/>
</svg>
