<svg width="40" height="40" viewBox="0 0 40 40" fill="none" xmlns="http://www.w3.org/2000/svg">
<path fill-rule="evenodd" clip-rule="evenodd" d="M22.3629 1.51436C20.9997 1.49963 19.6653 2.57524 20.1199 4.57573C20.2412 5.12132 20.8777 5.66689 20.7261 6.30341C20.5746 6.97024 20.029 7.4249 19.8774 8.18266C19.6046 9.7285 21.1202 11.3046 22.6054 11.0319C26.6367 10.3953 26.9701 1.48405 22.3629 1.51436ZM30.2739 13.002C31.2439 12.0321 32.2138 11.0319 33.1837 10.0619C33.8506 9.39509 34.7902 8.75856 35.1539 7.81893C35.942 5.81844 34.2143 4.39387 32.426 4.42418C31.9997 4.49963 31.9997 4.42418 31.3651 4.81821C29.9405 6.2428 28.5159 7.69771 27.0913 9.1223C26.5761 9.66789 26.0305 10.1832 25.5152 10.7287C24.7271 11.9715 25.3636 13.6385 26.273 14.2448C26.9095 14.6388 28.1522 14.7297 28.8493 14.3357C29.4252 14.0023 29.8193 13.4567 30.2739 13.002ZM33.0019 13.7295C31.8965 13.7426 31.3045 14.0629 30.577 14.4872C28.9706 15.4269 27.2429 18.2154 29.6374 19.6703C30.577 20.2462 31.8804 20.0038 32.6078 19.4279C32.8503 19.246 32.9716 18.8823 33.305 18.7913C34.0324 18.5792 34.5477 19.0338 35.0327 19.1248C36.5482 19.4279 37.5485 18.2761 37.8516 17.3061C38.7306 14.5176 35.548 13.6992 33.0019 13.7295Z" fill="#060606"/>
<path fill-rule="evenodd" clip-rule="evenodd" d="M31.5991 25.0341C31.1739 24.3659 30.5057 23.8496 29.9286 23.3029C28.7745 22.1487 27.6203 20.9946 26.4661 19.8404C24.006 17.3802 21.5761 14.92 19.116 12.4598C17.7796 11.1234 16.4432 9.30108 14.7119 8.42027C14.1045 8.11654 13.3452 8.05579 12.6466 7.90393C12.0391 8.14691 11.462 8.08616 10.9457 8.38989C9.42706 9.30107 9.36633 10.9108 8.48552 12.4598C14.6815 18.6862 20.9079 24.8822 27.104 31.1086C27.5596 30.9568 28.0151 30.7746 28.4707 30.6227C30.3538 29.9545 31.508 29.347 31.9332 27.1906C32.1155 26.3705 31.9028 25.5201 31.5991 25.0341ZM5.20527 23.3636C9.03223 27.1906 12.8592 31.0479 16.6861 34.8749C18.9033 34.0852 21.1206 33.2955 23.3378 32.5058C17.9922 27.1602 12.6466 21.7842 7.30098 16.4386C6.60241 18.747 5.90385 21.0553 5.20527 23.3636ZM1.71242 34.9964C1.31757 37.3654 3.32217 39.2485 5.72161 38.8233C8.27292 38.3981 10.3686 36.7883 12.8592 36.3328V36.3024C9.88267 33.3259 6.90614 30.3493 3.92962 27.3728C3.26142 29.9241 2.16801 32.2628 1.71242 34.9964Z" fill="#00D4EA"/>
</svg>
