<svg width="40" height="40" viewBox="0 0 40 40" fill="none" xmlns="http://www.w3.org/2000/svg">
<path d="M19.2355 38.6374C17.4406 38.6374 15.6458 38.6494 13.8509 38.6333C12.7482 38.6213 11.9152 38.1263 11.4604 37.1041C10.7803 35.5748 11.7904 33.8242 13.4484 33.6109C13.6939 33.5787 13.9434 33.5626 14.1889 33.5827C15.0139 33.6511 15.6377 33.2688 16.1609 32.6974C16.6478 32.1661 16.9134 31.5383 16.8933 30.8019C16.8813 30.3793 16.8973 29.9568 16.8893 29.5342C16.8853 29.4054 16.9175 29.3611 17.0543 29.3611C18.6238 29.3652 20.1893 29.3652 21.7588 29.3611C21.9077 29.3611 21.9359 29.4135 21.9319 29.5463C21.9238 29.993 21.9077 30.4437 21.9319 30.8944C21.9801 31.7355 22.2619 32.476 22.95 33.0113C23.445 33.3976 24.0245 33.5385 24.6443 33.5425C25.0266 33.5425 25.4049 33.5224 25.7832 33.6109C26.9462 33.8846 27.7592 34.9269 27.7229 36.1181C27.6867 37.3133 26.8255 38.3074 25.6544 38.5247C24.7771 38.6856 23.8917 38.6293 23.0104 38.6414C22.3826 38.6494 21.7508 38.6414 21.123 38.6414C20.4951 38.6374 19.8633 38.6374 19.2355 38.6374Z" fill="#060606"/>
<path d="M33.7236 14.6314C33.6512 13.3597 33.3051 12.1765 32.7658 11.0336C32.3352 10.1201 31.8523 9.2347 31.4096 8.32519C30.5363 6.53434 29.7637 4.69117 28.8179 2.93654C28.2465 1.87813 27.4134 1.2463 26.1618 1.25032C23.4615 1.25837 20.7611 1.25435 18.0648 1.25435C16.3906 1.25435 14.7165 1.24227 13.0423 1.25837C12.0161 1.27044 11.2273 1.73325 10.7766 2.65886C10.3218 3.58044 9.9194 4.5302 9.51294 5.47593C9.19099 6.22446 8.90124 6.9891 8.59941 7.74568C7.94343 9.38763 7.16672 10.9773 6.62343 12.6635C6.20892 13.9553 5.95136 15.2713 6.0077 16.6396C6.04795 17.698 6.36185 18.684 6.80855 19.6216C7.30355 20.664 7.99172 21.5694 8.83684 22.3663C9.42441 22.9216 10.0764 23.3844 10.7525 23.8231C11.7183 24.4509 12.7968 24.8453 13.8834 25.2115C14.5676 25.4449 15.2598 25.6542 15.9761 25.7709C17.28 25.9842 18.6 25.9882 20.2862 26.0405C20.7168 26.0768 21.5096 25.9198 22.3065 25.9279C22.4513 25.9279 22.6002 25.8997 22.7451 25.8715C24.3026 25.5616 25.8318 25.1511 27.2806 24.4791C27.9165 24.1853 28.5684 23.9197 29.1399 23.4931C29.6027 23.151 30.0534 22.7929 30.4719 22.3944C30.9267 21.9598 31.3855 21.5212 31.7517 21.0101C32.303 20.2414 32.7457 19.4043 33.116 18.5391C33.6432 17.2915 33.8001 15.9836 33.7236 14.6314ZM28.0171 12.5669C27.3852 13.0579 26.681 13.3919 25.9083 13.6052C25.2966 13.7742 24.6809 13.8788 24.049 13.8708C22.7854 13.8587 21.6344 13.5006 20.6444 12.7037C20.3184 12.4421 20.0206 12.1323 19.7389 11.8184C18.934 10.9249 17.9521 10.3374 16.7931 10.0396C15.7668 9.77799 14.7648 9.91482 13.7748 10.2448C13.4448 10.3535 13.1188 10.4742 12.7445 10.607C12.8854 10.2649 13.0021 9.95507 13.1429 9.65324C13.6259 8.61092 14.0565 7.54044 14.5112 6.48605C14.5756 6.33715 14.6481 6.27678 14.8171 6.27678C17.5577 6.28483 20.2943 6.2808 23.0349 6.2808C23.5017 6.2808 23.9726 6.2969 24.4394 6.27276C24.6648 6.26068 24.7694 6.36532 24.8539 6.53434C25.035 6.90056 25.2483 7.24666 25.4576 7.59678C26.2463 8.90068 27.019 10.2167 27.7233 11.5688C27.848 11.8063 27.9527 12.0518 28.0774 12.2892C28.1378 12.4099 28.1217 12.4864 28.0171 12.5669Z" fill="#8F55FA"/>
</svg>
