<svg width="24" height="24" viewBox="0 0 24 24" fill="none" xmlns="http://www.w3.org/2000/svg">
<path d="M3.99999 14.5L4.9138 14.9061L4.99999 14.7122V14.5H3.99999ZM2.62494 17.5939L1.71113 17.1877L1.71113 17.1877L2.62494 17.5939ZM21.375 17.5939L22.2889 17.1877L22.2889 17.1877L21.375 17.5939ZM20 14.5H19V14.7122L19.0862 14.9061L20 14.5ZM4.99999 10C4.99999 6.13401 8.134 3 12 3V1C7.02943 1 2.99999 5.02944 2.99999 10H4.99999ZM4.99999 14.5V10H2.99999V14.5H4.99999ZM3.53875 18L4.9138 14.9061L3.08618 14.0939L1.71113 17.1877L3.53875 18ZM3.53875 18L3.53875 18L1.71113 17.1877C1.12332 18.5103 2.09143 20 3.53875 20V18ZM20.4612 18H3.53875V20H20.4612V18ZM20.4612 18L20.4612 18V20C21.9085 20 22.8767 18.5103 22.2889 17.1877L20.4612 18ZM19.0862 14.9061L20.4612 18L22.2889 17.1877L20.9138 14.0939L19.0862 14.9061ZM19 10V14.5H21V10H19ZM12 3C15.866 3 19 6.13401 19 10H21C21 5.02944 16.9706 1 12 1V3Z" fill="#060606"/>
<path d="M15 20C15 21.6569 13.6569 23 12 23C10.3431 23 9 21.6569 9 20" stroke="#060606" stroke-width="2"/>
</svg>
