<svg width="40" height="20" viewBox="0 0 40 20" fill="none" xmlns="http://www.w3.org/2000/svg">
<path fill-rule="evenodd" clip-rule="evenodd" d="M5.13276 5.12482H3.74285L3.50457 3.62586H6.86023V7.58595C6.02628 8.143 5.04341 8.44684 3.94141 8.44684C1.39984 8.44684 0 6.75545 0 4.23355C0 1.71165 1.51898 0 3.98112 0C4.96399 0 5.78801 0.232947 6.43333 0.597559L6.16527 2.35985C5.55966 1.96485 4.85478 1.66101 4.03076 1.66101C2.65077 1.66101 1.98559 2.69408 1.98559 4.22342C1.98559 5.76289 2.67062 6.83647 4.06054 6.83647C4.49737 6.83647 4.80514 6.75545 5.13276 6.57314V5.12482ZM9.72063 2.27897C9.72063 2.69422 9.94897 2.89678 10.9418 3.28165C12.6692 3.92985 13.3642 4.54766 13.3642 5.8238C13.3642 7.59622 12.0934 8.37609 10.5049 8.37609C9.43272 8.37609 8.52927 8.14314 7.71518 7.7684L8.00309 6.04662C8.82711 6.50239 9.74049 6.80623 10.5347 6.80623C11.1006 6.80623 11.4977 6.56316 11.4977 6.07701C11.4977 5.61111 11.2694 5.39842 10.1475 4.96292C8.54913 4.3451 7.85417 3.80831 7.85417 2.46127C7.85417 0.891414 9.05546 0.0507812 10.5844 0.0507812C11.6268 0.0507812 12.3019 0.253344 12.9969 0.597699L12.699 2.29922C11.9842 1.87384 11.2297 1.64089 10.6141 1.64089C10.0085 1.64089 9.72063 1.90423 9.72063 2.27897ZM16.3008 1.26607H19.1501V8.28485H20.3712V1.26607H23.0816V0.172236H16.3008V1.26607ZM25.5649 3.57528H30.4892V0.172236H31.7004V8.28485H30.4892V4.65899H25.5649V8.28485H24.3438V0.172236H25.5649V3.57528ZM33.8359 8.28485H40.0012V7.18089H34.9975V4.63873H39.1474V3.5449H34.9975V1.26607H40.0012V0.172236H33.8359V8.28485ZM26.9325 14.9466L28.5111 15.372C29.9109 15.767 30.6555 16.3746 30.6555 17.5191C30.6555 19.0181 29.3649 20.0005 27.4786 20.0005C26.3269 20.0005 25.2348 19.5954 24.7285 19.3017L25.0164 18.1167C25.5525 18.461 26.5056 18.856 27.4984 18.856C28.66 18.856 29.3947 18.3699 29.3947 17.6204C29.3947 17.0431 28.8983 16.7291 28.0047 16.5063L26.4063 16.0911C25.2547 15.7872 24.6094 15.0884 24.6094 14.0249C24.6094 12.7589 25.5922 11.6651 27.7466 11.6651C28.8387 11.6651 29.9308 11.979 30.5265 12.3133L30.1591 13.478C29.6031 13.1235 28.5806 12.8095 27.697 12.8095C26.4262 12.8095 25.8603 13.3261 25.8603 13.9338C25.8603 14.4807 26.2475 14.7643 26.9325 14.9466ZM15.0036 14.367C15.0036 15.8356 13.8718 16.818 12.5018 16.899C12.6286 17.0317 12.7588 17.1749 12.8923 17.3217C13.5741 18.0716 14.3405 18.9145 15.1625 18.9145H15.7681V19.9982H14.9738C13.7538 19.9982 12.7538 18.8362 11.9441 17.8952C11.5877 17.4809 11.2681 17.1095 10.9828 16.899H9.78152V19.8767H8.57031V11.7641H12.0153C13.5144 11.7641 15.0036 12.4629 15.0036 14.367ZM9.78152 12.8579V15.9065V15.9166H12.1444C13.028 15.9166 13.7329 15.3494 13.7329 14.3974C13.7329 13.3542 13.0379 12.8579 12.1444 12.8579H9.78152ZM2.16547 19.8885H1.00391V11.7759H6.93086V12.8698H2.16547V15.1486H6.3054V16.2526H2.16547V19.8885ZM17.2773 19.8885H23.4426V18.7846H18.4389V16.2424H22.5888V15.1486H18.4389V12.8698H23.4426V11.7759H17.2773V19.8885ZM38.4284 11.7759V15.1587H33.5042V11.7759H32.293V19.8885H33.5042V16.2526H38.4284V19.8885H39.6397V11.7759H38.4284Z" fill="#060606"/>
</svg>
