<svg width="33" height="10" viewBox="0 0 33 10" fill="none" xmlns="http://www.w3.org/2000/svg">
<path fill-rule="evenodd" clip-rule="evenodd" d="M8.60974 8.97757V4.28273H4.40801L4.70116 6.05634H6.44374V7.77256C6.03659 7.98644 5.64573 8.08033 5.09202 8.08033C3.3603 8.08033 2.49172 6.80751 2.49172 4.99218C2.49172 3.18727 3.33315 1.9614 5.06487 1.9614C6.09631 1.9614 6.98659 2.32655 7.73574 2.7856L8.07231 0.704225C7.26888 0.276474 6.23745 0 4.99973 0C1.90543 0 0 2.024 0 5.01304C0 7.99165 1.75886 10 4.94544 10C6.32431 10 7.56202 9.63485 8.60974 8.97757ZM16.7811 6.91434C16.7811 5.38069 15.9126 4.65039 13.7303 3.88356C12.4763 3.42451 12.1994 3.18455 12.1994 2.6942C12.1994 2.24559 12.5631 1.94303 13.3231 1.94303C14.0886 1.94303 15.0386 2.2195 15.9397 2.72029L16.3197 0.71194C15.4457 0.305054 14.6043 0.0703125 13.296 0.0703125C11.3797 0.0703125 9.86512 1.06144 9.86512 2.91851C9.86512 4.50954 10.7337 5.14073 12.7423 5.88147C14.1537 6.39791 14.4414 6.65352 14.4414 7.19603C14.4414 7.76984 13.9474 8.06197 13.2363 8.06197C12.232 8.06197 11.0866 7.69681 10.0551 7.16995L9.69141 9.20959C10.712 9.65821 11.8411 9.93468 13.1928 9.93468C15.1851 9.92947 16.7811 9.01137 16.7811 6.91434ZM21.9231 6.41448L21.8502 6.4605C21.101 6.9352 20.4604 7.38904 20.4604 7.80636H24.5862V9.73646H17.8873C17.8167 9.34522 17.7842 9.03223 17.7842 8.75054C17.7842 6.60302 19.3808 5.55433 20.6652 4.71066L20.6776 4.70255L20.7131 4.67938C21.5107 4.15828 22.1433 3.74502 22.1433 3.19499C22.1433 2.50119 21.595 2.05779 21.0304 2.05779C20.1619 2.05779 19.6407 2.85591 19.5213 3.05936L17.6484 2.21429C17.7896 1.92738 18.7667 0.0703125 21.1987 0.0703125C22.8273 0.0703125 24.5807 0.977981 24.5807 2.96546C24.5807 4.73781 23.0715 5.68998 21.9231 6.41448ZM30.4254 3.01122C30.2951 2.96949 30.0671 2.91211 29.8391 2.91211C29.1985 2.91211 28.6828 3.40768 28.6828 4.02322C28.6828 4.44054 28.9108 4.79526 29.2745 4.99349C29.3658 5.04488 29.5409 5.10503 29.6942 5.15769C29.8054 5.19591 29.9052 5.23018 29.9531 5.25431C30.4417 5.5047 30.7674 5.99505 30.7674 6.56365C30.7674 7.38264 30.078 8.04513 29.2257 8.04513C28.4168 8.04513 27.7545 7.44523 27.6894 6.68363L25.6211 7.1166C25.9577 8.75979 27.4668 9.9961 29.2745 9.9961C31.332 9.9961 32.9986 8.39464 32.9986 6.41759C32.9931 4.83699 31.9128 3.47549 30.4254 3.01122ZM29.8391 4.75875C29.4157 4.75875 29.0682 4.42489 29.0682 4.018C29.0682 3.61112 29.4157 3.27726 29.8391 3.27726C30.2625 3.27726 30.61 3.61112 30.61 4.018C30.6045 4.43011 30.2625 4.75875 29.8391 4.75875ZM30.597 2.13518H28.2084L27.9424 4.67039H25.8633L26.2704 0.205078H32.5242C32.5242 1.0345 32.0084 2.13518 30.597 2.13518Z" fill="#060606"/>
</svg>
